Coordinates
version=1
nRows=9
nColumns=63
inDegrees=yes

Units are S.I. units (second, meters, Newtons, ...)
If the header above contains a line with 'inDegrees', this indicates whether rotational values are in degrees (yes) or radians (no).

endheader
time	pelvis_tilt	pelvis_list	pelvis_rotation	pelvis_tx	pelvis_ty	pelvis_tz	hip_flexion_r	hip_adduction_r	hip_rotation_r	knee_angle_r	knee_angle_r_beta	ankle_angle_r	subtalar_angle_r	mtp_angle_r	hip_flexion_l	hip_adduction_l	hip_rotation_l	knee_angle_l	knee_angle_l_beta	ankle_angle_l	subtalar_angle_l	mtp_angle_l	L5_S1_Flex_Ext	L5_S1_Lat_Bending	L5_S1_axial_rotation	L4_L5_Flex_Ext	L4_L5_Lat_Bending	L4_L5_axial_rotation	L3_L4_Flex_Ext	L3_L4_Lat_Bending	L3_L4_axial_rotation	L2_L3_Flex_Ext	L2_L3_Lat_Bending	L2_L3_axial_rotation	L1_L2_Flex_Ext	L1_L2_Lat_Bending	L1_L2_axial_rotation	L1_T12_Flex_Ext	L1_T12_Lat_Bending	L1_T12_axial_rotation	Abs_r3	Abs_r2	Abs_r1	Abs_t1	Abs_t2	neck_flexion	neck_bending	neck_rotation	arm_flex_r	arm_add_r	arm_rot_r	elbow_flex_r	pro_sup_r	wrist_flex_r	wrist_dev_r	arm_flex_l	arm_add_l	arm_rot_l	elbow_flex_l	pro_sup_l	wrist_flex_l	wrist_dev_l
5.769231	-1.057736	-12.216606	94.877254	0.149206	1.011255	0.274797	-2.027298	-5.092169	-20.461986	8.739599	0.152535	28.110570	17.183851	0.000000	0.834937	0.623158	13.010776	7.295311	0.127327	22.453977	-9.993604	0.000000	0.265905	-0.317148	-0.594583	0.493813	-0.421807	-0.631744	0.436856	-0.771115	-0.631744	0.303903	-0.771115	-0.520260	0.246920	-0.646729	-0.483099	0.151938	-0.491263	-0.445937	1.899335	-3.587646	-3.306892	0.000000	0.000000	17.669275	2.439218	-24.230981	172.867852	-162.855456	209.064633	51.308248	87.830296	-12.114548	3.851157	-175.838783	-158.712006	-138.598173	45.694039	88.336268	-10.621094	2.806094
5.788462	-1.145087	-12.241149	94.407707	0.150243	1.011151	0.276089	-1.941807	-5.096706	-19.685983	8.431917	0.147165	28.004523	17.028022	0.000000	1.027541	0.669113	12.234952	7.454082	0.130098	22.604496	-9.569719	0.000000	0.268722	-0.330414	-0.397724	0.499044	-0.439451	-0.422582	0.441484	-0.803369	-0.422582	0.307123	-0.803369	-0.348009	0.249536	-0.673781	-0.323151	0.153548	-0.511812	-0.298293	1.919458	-3.737713	-2.212022	0.000000	0.000000	17.551123	2.368281	-24.906487	172.908361	-162.856485	208.296811	51.313690	87.454611	-12.079919	4.062017	-174.997936	-158.464024	-140.792107	45.546876	88.112591	-10.224048	4.637676
5.807692	-1.200819	-12.238792	93.994973	0.151122	1.011148	0.277430	-1.893609	-5.067630	-18.947601	8.098278	0.141342	27.858827	16.850432	0.000000	1.205952	0.678564	11.299558	7.619869	0.132992	22.832119	-8.851868	0.000000	0.269989	-0.336674	-0.202315	0.501397	-0.447777	-0.214960	0.443566	-0.818589	-0.214960	0.308571	-0.818589	-0.177026	0.250712	-0.686546	-0.164381	0.154272	-0.521508	-0.151736	1.928507	-3.808525	-1.125216	0.000000	0.000000	17.317149	2.263269	-25.422870	172.899421	-162.852987	207.361708	51.323633	86.970228	-11.994253	4.195137	-173.887086	-158.397478	-142.252505	45.254594	87.761330	-9.936933	6.400713
5.826923	-1.234798	-12.203186	93.671610	0.151818	1.011233	0.278725	-1.901788	-5.012934	-18.309918	7.746492	0.135202	27.698049	16.684328	0.000000	1.346955	0.660997	10.293940	7.769429	0.135602	23.126844	-7.889281	0.000000	0.269981	-0.336861	-0.021687	0.501381	-0.448026	-0.023043	0.443551	-0.819045	-0.023043	0.308561	-0.819045	-0.018976	0.250704	-0.686928	-0.017621	0.154267	-0.521798	-0.016266	1.928445	-3.810643	-0.120619	0.000000	0.000000	16.976233	2.131122	-25.718255	172.799509	-162.873777	206.182959	51.425007	86.500634	-11.904773	4.282311	-172.642858	-158.450052	-143.142900	44.944079	87.341661	-9.822468	7.970882
5.846154	-1.252686	-12.138936	93.428775	0.152362	1.011410	0.280008	-1.960669	-4.936949	-17.727901	7.372719	0.128678	27.531714	16.491553	0.000000	1.458973	0.628660	9.327969	7.912179	0.138094	23.462365	-6.857152	0.000000	0.267457	-0.333242	0.136055	0.496695	-0.443212	0.144559	0.439405	-0.810245	0.144559	0.305677	-0.810245	0.119048	0.248361	-0.679547	0.110545	0.152825	-0.516192	0.102041	1.910419	-3.769702	0.756699	0.000000	0.000000	16.565566	2.048053	-25.831357	172.675786	-162.883640	204.942418	51.620792	86.106633	-11.835649	4.335292	-171.435662	-158.512971	-143.947779	44.790357	86.764958	-9.584230	9.413339
5.865385	-1.284122	-12.057366	93.280416	0.152740	1.011658	0.281185	-2.062297	-4.876126	-17.276116	7.005425	0.122268	27.388460	16.314056	0.000000	1.526212	0.610511	8.443662	8.006870	0.139746	23.798868	-5.758491	0.000000	0.264424	-0.329913	0.257378	0.491061	-0.438784	0.273464	0.434421	-0.802151	0.273464	0.302210	-0.802151	0.225206	0.245544	-0.672759	0.209120	0.151092	-0.511035	0.193033	1.888751	-3.732043	1.431459	0.000000	0.000000	16.096489	2.017125	-25.742477	172.532602	-162.893038	203.750573	51.907632	85.816053	-11.816177	4.315031	-170.455934	-158.584644	-144.999986	44.871763	86.134838	-9.174465	10.699290
5.884615	-1.321276	-11.960802	93.240841	0.152930	1.011973	0.282271	-2.203973	-4.825818	-16.995393	6.651237	0.116086	27.263360	16.182965	0.000000	1.560576	0.599473	7.652126	8.070118	0.140850	24.129029	-4.586641	0.000000	0.259676	-0.326186	0.333680	0.482245	-0.433827	0.354535	0.426622	-0.793088	0.354535	0.296784	-0.793088	0.291970	0.241136	-0.665158	0.271115	0.148379	-0.505262	0.250260	1.854843	-3.689879	1.855829	0.000000	0.000000	15.625063	2.077800	-25.408368	172.423259	-162.873426	202.775470	52.252736	85.606268	-11.850979	4.197702	-169.810954	-158.682479	-146.582433	45.271815	85.485855	-8.308097	12.046750
5.903846	-1.366024	-11.864383	93.278046	0.152941	1.012341	0.283248	-2.350446	-4.800014	-16.872133	6.350490	0.110837	27.156205	16.079998	0.000000	1.563541	0.598263	6.904371	8.082693	0.141070	24.434963	-3.321951	0.000000	0.255616	-0.322040	0.370672	0.474704	-0.428313	0.393839	0.419951	-0.783007	0.393839	0.292143	-0.783007	0.324338	0.237365	-0.656703	0.301171	0.146059	-0.498839	0.278004	1.825837	-3.642977	2.061569	0.000000	0.000000	15.152013	2.183587	-24.885919	172.364799	-162.809472	202.092564	52.636096	85.485646	-11.905134	4.010178	-169.509675	-158.845642	-148.652707	45.935364	84.848000	-7.171977	13.347827
5.923077	-1.413207	-11.770846	93.397237	0.152747	1.012769	0.284167	-2.497241	-4.795701	-16.916081	6.105716	0.106565	27.059967	16.030789	0.000000	1.552507	0.604537	6.179666	8.069364	0.140837	24.719988	-1.951645	0.000000	0.251465	-0.316512	0.371756	0.466995	-0.420962	0.394990	0.413131	-0.769568	0.394990	0.287399	-0.769568	0.325286	0.233510	-0.645432	0.302051	0.143687	-0.490278	0.278817	1.796187	-3.580453	2.067593	0.000000	0.000000	14.684824	2.316052	-24.202256	172.359447	-162.700086	201.706095	53.035934	85.444637	-12.004893	3.741041	-169.498046	-159.064619	-151.100022	46.811758	84.210642	-5.769350	14.571940
